# xmcd
#
# Track frame offsets: 
#        150
#        8170
#        23564
#        40654
#        59767
#        79814
#        105583
#        129900
#        144475
#        169939
#        182886
#        207223
#        243050
#        266377
#        283941
#
# Disc length: 4261 seconds
#
# Revision: 3
# Processed by: cddbd v1.5.2PL0 Copyright (c) Steve Scherf et al.
# Submitted via: ExactAudioCopyFreeDBPlugin 1.0
#
DISCID=c910a30f
DTITLE=Michel Jonasz - Olympia 2000 - CD1
DYEAR=2000
DGENRE=Jazz
TTITLE0=Intro(Live)
TTITLE1=Inspiration(Live)
TTITLE2=Les Vacances Au Bord De La Mer(Live)
TTITLE3=Les Traces Derrière Nous(Live)
TTITLE4=Le Millénaire(Live)
TTITLE5=L'Amour Ca Devient Sérieux(Live)
TTITLE6=Super Nana(Live)
TTITLE7=Le Boléro(Live)
TTITLE8=25 Piges Dont 5 Au Cachot(Live)
TTITLE9=En V'la Du Slow En V'la(Live)
TTITLE10=Triste Et Bleu(Live)
TTITLE11=La Chanson Du Compositeur(Live)
TTITLE12=Le Lac Gelé(Live)
TTITLE13=Taj Mahal Intro(Live)
TTITLE14=Taj Mahal(Live)
EXTD=YEAR: 2000
EXTT0=
EXTT1=
EXTT2=
EXTT3=
EXTT4=
EXTT5=
EXTT6=
EXTT7=
EXTT8=
EXTT9=
EXTT10=
EXTT11=
EXTT12=
EXTT13=
EXTT14=
PLAYORDER=
